<svg width="1200" height="630" viewBox="0 0 1200 630" fill="none" xmlns="http://www.w3.org/2000/svg">
<rect width="1200" height="630" fill="#111827"/>
<g transform="translate(150 165) scale(3)">
<circle cx="50" cy="50" r="48" fill="#10B981"/>
<path d="M30 79C33 71.5 41.2 57.2 44.5 51.5C46 48.5 47 47 48 47C49 47 50 48 50.5 49.5C52 54.5 53.5 58.5 55 62C56 64.5 57.5 68 59 70.5C63 77.5 66.5 79 66.5 79H30Z M61 41C58.5 41 56.5 43 56.5 45.5C56.5 48 58.5 50 61 50C63.5 50 65.5 48 65.5 45.5C65.5 43 63.5 41 61 41Z" fill="white"/>
</g>
<text x="750" y="270" dominant-baseline="middle" text-anchor="middle" font-family="Arial, sans-serif" font-size="70" font-weight="bold" fill="#D1FAE5">
    Seedream <tspan fill="#E5E7EB">ImagenBrainAi</tspan>
</text>
<text x="750" y="340" dominant-baseline="middle" text-anchor="middle" font-family="Arial, sans-serif" font-size="32" fill="#9CA3AF">
    Transform Ideas Into Masterpieces
</text>
</svg>
